<svg xmlns="http://www.w3.org/2000/svg" viewBox="0 0 1422 405"><title>pagely-full-blue</title><g id="Layer_2" data-name="Layer 2"><g id="Layer_5" data-name="Layer 5"><path d="M477,73.16h63.15c23.12,0,40,4.74,54.49,18.25s19,29.92,19,60.95c0,22.63-2.06,38-12,52.19-11.56,16.79-30.13,27-61.09,27H519.1V333H477Zm42.1,123.35h20.23c34.26,0,34.67-17.88,34.67-43.79,0-24.45,0-44.52-33-44.52H519.1Z" fill="#1c5673"/><path d="M672.28,72h35.09L773,333h-42.1L718.5,277.16H661.13L648.75,333H606.65ZM690,149h-.83l-20.64,94.16h42.1Z" fill="#1c5673"/><path d="M787,134.73C787,92.91,823.33,72,857.59,72s70.58,20.91,70.58,62.73v13h-42.1v-13c0-17.67-13.2-26-28.48-26s-28.48,8.29-28.48,26V270.27c0,17.67,13.21,26,28.48,26s28.48-8.29,28.48-26V222H852.63V189.52h75.54v80.75c0,41.82-36.33,62.73-70.58,62.73S787,312.09,787,270.27Z" fill="#1c5673"/><path d="M961.17,72h126v35.19h-83.74V183.8h73V219h-73V295.6h83.74V333h-126Z" fill="#1c5673"/><path d="M1109.74,72h42.1V295.77h83.38V333H1109.74Z" fill="#1c5673"/><path d="M1259.89,222.66,1201.86,72h44.77l34,103.74h.83l34-103.74h44.77l-58,150.66V333h-42.3Z" fill="#1c5673"/><path d="M1402.24,72a19.76,19.76,0,1,1-19.75,19.76A19.75,19.75,0,0,1,1402.24,72Zm0,3.6a16.16,16.16,0,1,0,15.83,16.16A16,16,0,0,0,1402.24,75.6Zm-7.48,4.64h8.73c5.29,0,7.91,2.13,7.91,6.5s-2.67,6.06-5.89,6.44l6.6,10.1h-4.37l-6.6-10h-2.78v10h-3.6Zm3.6,9.77h4.09c3.55,0,5.35-1,5.35-3.44,0-2.13-1.75-3.06-4.2-3.06h-5.24Z" fill="#1c5673"/><path d="M234,153a27,27,0,0,0-27-27H171v54h36A27,27,0,0,0,234,153Z" fill="#1c5673"/><path d="M207,90H135V315h18V108h54a45,45,0,0,1,0,90H171V315h18V216h18a63,63,0,0,0,0-126Z" fill="#1c5673"/><path d="M0,0V405H405V0ZM207,234v99H117V72h90a81,81,0,0,1,0,162Z" fill="#1c5673"/></g></g></svg>